<svg width="66" height="66" viewBox="0 0 66 66" fill="none" xmlns="http://www.w3.org/2000/svg">
<circle cx="33" cy="33" r="33" fill="#0064AA" fill-opacity="0.1"/>
<g clip-path="url(#clip0_2_573)">
<path d="M26.3334 23.6667V19.6667C26.3334 19.3131 26.4738 18.9739 26.7239 18.7239C26.9739 18.4738 27.3131 18.3334 27.6667 18.3334H38.3334C38.687 18.3334 39.0261 18.4738 39.2762 18.7239C39.5262 18.9739 39.6667 19.3131 39.6667 19.6667V23.6667H45C45.3536 23.6667 45.6928 23.8072 45.9428 24.0572C46.1929 24.3073 46.3334 24.6464 46.3334 25V43.6667C46.3334 44.0203 46.1929 44.3595 45.9428 44.6095C45.6928 44.8596 45.3536 45 45 45H21C20.6464 45 20.3073 44.8596 20.0572 44.6095C19.8072 44.3595 19.6667 44.0203 19.6667 43.6667V25C19.6667 24.6464 19.8072 24.3073 20.0572 24.0572C20.3073 23.8072 20.6464 23.6667 21 23.6667H26.3334ZM22.3334 37V42.3334H43.6667V37H22.3334ZM31.6667 31.6667V34.3334H34.3334V31.6667H31.6667ZM29 21V23.6667H37V21H29Z" fill="#0064AA"/>
</g>
<defs>
<clipPath id="clip0_2_573">
<rect width="32" height="32" fill="white" transform="translate(17 17)"/>
</clipPath>
</defs>
</svg>
