<svg width="66" height="66" viewBox="0 0 66 66" fill="none" xmlns="http://www.w3.org/2000/svg">
<circle cx="33" cy="33" r="33" fill="#FCA412" fill-opacity="0.1"/>
<g clip-path="url(#clip0_2_559)">
<path d="M45 38.8933V43.608C45.0002 43.9456 44.8723 44.2706 44.6421 44.5176C44.412 44.7646 44.0967 44.915 43.76 44.9387C43.1773 44.9787 42.7013 45 42.3333 45C30.5507 45 21 35.4493 21 23.6667C21 23.2987 21.02 22.8227 21.0613 22.24C21.085 21.9033 21.2354 21.588 21.4824 21.3579C21.7294 21.1277 22.0544 20.9998 22.392 21H27.1067C27.2721 20.9998 27.4316 21.0611 27.5543 21.172C27.677 21.2829 27.7541 21.4354 27.7707 21.6C27.8013 21.9067 27.8293 22.1507 27.856 22.336C28.121 24.1852 28.664 25.9838 29.4667 27.6707C29.5933 27.9373 29.5107 28.256 29.2707 28.4267L26.3933 30.4827C28.1526 34.5819 31.4194 37.8487 35.5187 39.608L37.572 36.736C37.6559 36.6187 37.7784 36.5345 37.918 36.4982C38.0576 36.4619 38.2055 36.4757 38.336 36.5373C40.0227 37.3385 41.8208 37.8802 43.6693 38.144C43.8547 38.1707 44.0987 38.2 44.4027 38.2293C44.567 38.2462 44.7192 38.3234 44.8298 38.4461C44.9404 38.5688 45.0015 38.7282 45.0013 38.8933H45Z" fill="url(#paint0_linear_2_559)"/>
</g>
<defs>
<linearGradient id="paint0_linear_2_559" x1="6.67662" y1="14.0323" x2="41.5156" y2="45.0019" gradientUnits="userSpaceOnUse">
<stop stop-color="#FCA412"/>
<stop offset="1" stop-color="#FCA412"/>
</linearGradient>
<clipPath id="clip0_2_559">
<rect width="32" height="32" fill="white" transform="translate(17 17)"/>
</clipPath>
</defs>
</svg>
