<svg width="20" height="20" viewBox="0 0 20 20" fill="none" xmlns="http://www.w3.org/2000/svg">
<path d="M14.1668 15C14.1668 14.558 13.9912 14.1341 13.6787 13.8215C13.3661 13.509 12.9422 13.3334 12.5002 13.3334H7.50016C7.05814 13.3334 6.63421 13.509 6.32165 13.8215C6.00909 14.1341 5.8335 14.558 5.8335 15" stroke="#FCA412" stroke-width="1.5" stroke-linecap="round" stroke-linejoin="round"/>
<path d="M16.3333 2H4.66667C3.74619 2 3 2.79594 3 3.77778V16.2222C3 17.2041 3.74619 18 4.66667 18H16.3333C17.2538 18 18 17.2041 18 16.2222V3.77778C18 2.79594 17.2538 2 16.3333 2Z" stroke="#FCA412" stroke-width="1.5" stroke-linecap="round" stroke-linejoin="round"/>
<path d="M10.0002 9.99996C10.9206 9.99996 11.6668 9.25377 11.6668 8.33329C11.6668 7.41282 10.9206 6.66663 10.0002 6.66663C9.07969 6.66663 8.3335 7.41282 8.3335 8.33329C8.3335 9.25377 9.07969 9.99996 10.0002 9.99996Z" stroke="#FCA412" stroke-width="1.5" stroke-linecap="round" stroke-linejoin="round"/>
</svg>
