<svg width="62" height="62" viewBox="0 0 62 62" fill="none" xmlns="http://www.w3.org/2000/svg">
<g clip-path="url(#clip0_2_505)">
<path d="M33.5833 33.5834V48.0113L38.3056 43.289L41.9611 46.9444L31 57.9029L20.0389 46.9444L23.6943 43.289L28.4166 48.0113V33.5834H33.5833ZM31 5.16675C35.4355 5.16696 39.7163 6.79713 43.0285 9.7473C46.3406 12.6975 48.4532 16.7619 48.9645 21.1679C52.1788 22.0445 54.9829 24.0228 56.8867 26.757C58.7904 29.4913 59.6728 32.8076 59.3795 36.1264C59.0862 39.4452 57.6359 42.5554 55.2822 44.9134C52.9284 47.2715 49.8208 48.7273 46.5026 49.0266V43.8238C47.6913 43.654 48.8344 43.2491 49.865 42.6328C50.8956 42.0164 51.7931 41.201 52.5051 40.234C53.2171 39.267 53.7294 38.1679 54.012 37.0008C54.2946 35.8336 54.3419 34.6219 54.1511 33.4363C53.9603 32.2508 53.5352 31.1151 52.9007 30.0955C52.2662 29.076 51.435 28.1931 50.4556 27.4983C49.4762 26.8035 48.3681 26.3108 47.1962 26.0489C46.0243 25.787 44.8119 25.7612 43.6299 25.9729C44.0345 24.0894 44.0126 22.1392 43.5659 20.2652C43.1191 18.3912 42.2589 16.6408 41.0481 15.1424C39.8373 13.6439 38.3067 12.4352 36.5683 11.6049C34.8299 10.7746 32.9278 10.3437 31.0013 10.3437C29.0748 10.3437 27.1726 10.7746 25.4342 11.6049C23.6959 12.4352 22.1652 13.6439 20.9544 15.1424C19.7436 16.6408 18.8834 18.3912 18.4367 20.2652C17.9899 22.1392 17.9681 24.0894 18.3726 25.9729C16.0157 25.5303 13.5796 26.0421 11.6 27.3957C9.62049 28.7493 8.25974 30.8339 7.81714 33.1907C7.37454 35.5476 7.88633 37.9838 9.23994 39.9634C10.5935 41.9429 12.6781 43.3036 15.035 43.7463L15.5 43.8238V49.0266C12.1816 48.7278 9.07368 47.2722 6.71957 44.9144C4.36545 42.5566 2.91482 39.4464 2.62121 36.1276C2.32761 32.8087 3.20971 29.4921 5.11334 26.7577C7.01697 24.0232 9.82105 22.0447 13.0355 21.1679C13.5462 16.7617 15.6586 12.6969 18.9709 9.74665C22.2832 6.79637 26.5643 5.16639 31 5.16675Z" fill="url(#paint0_linear_2_505)"/>
</g>
<defs>
<linearGradient id="paint0_linear_2_505" x1="-31.3719" y1="-10.1438" x2="45.6432" y2="63.6787" gradientUnits="userSpaceOnUse">
<stop stop-color="#FFDF21"/>
<stop offset="1" stop-color="#FCA412"/>
</linearGradient>
<clipPath id="clip0_2_505">
<rect width="62" height="62" fill="white"/>
</clipPath>
</defs>
</svg>
