<svg width="66" height="66" viewBox="0 0 66 66" fill="none" xmlns="http://www.w3.org/2000/svg">
<circle cx="33" cy="33" r="33" fill="#FF3E66" fill-opacity="0.1"/>
<g clip-path="url(#clip0_2_578)">
<path d="M21 21H45C45.3536 21 45.6927 21.1405 45.9428 21.3905C46.1928 21.6406 46.3333 21.9797 46.3333 22.3333V43.6667C46.3333 44.0203 46.1928 44.3594 45.9428 44.6095C45.6927 44.8595 45.3536 45 45 45H21C20.6464 45 20.3072 44.8595 20.0572 44.6095C19.8071 44.3594 19.6667 44.0203 19.6667 43.6667V22.3333C19.6667 21.9797 19.8071 21.6406 20.0572 21.3905C20.3072 21.1405 20.6464 21 21 21ZM33.08 32.5773L24.5307 25.3173L22.804 27.3493L33.0973 36.0893L43.2053 27.3427L41.4613 25.3253L33.0813 32.5773H33.08Z" fill="#FF3E66"/>
</g>
<defs>
<clipPath id="clip0_2_578">
<rect width="32" height="32" fill="white" transform="translate(17 17)"/>
</clipPath>
</defs>
</svg>
