<svg width="66" height="66" viewBox="0 0 66 66" fill="none" xmlns="http://www.w3.org/2000/svg">
<circle cx="33" cy="33" r="33" fill="#3578FF" fill-opacity="0.1"/>
<g clip-path="url(#clip0_2_603)">
<path d="M39.168 21.176L29.3867 30.9546L29.3973 36.6173L35.048 36.608L44.8227 26.832C45.8178 28.7355 46.3362 30.852 46.3333 33C46.3333 40.364 40.364 46.3333 33 46.3333C25.636 46.3333 19.6667 40.364 19.6667 33C19.6667 25.636 25.636 19.6666 33 19.6666C35.2253 19.6666 37.3227 20.212 39.168 21.176ZM44.3147 19.8013L46.1987 21.6866L33.9427 33.9426L32.06 33.9466L32.0573 32.0573L44.3133 19.8L44.3147 19.8013Z" fill="#3578FF"/>
</g>
<defs>
<clipPath id="clip0_2_603">
<rect width="32" height="32" fill="white" transform="translate(17 17)"/>
</clipPath>
</defs>
</svg>
