<svg width="24" height="24" viewBox="0 0 24 24" fill="none" xmlns="http://www.w3.org/2000/svg">
<g clip-path="url(#clip0_1100_70)">
<g clip-path="url(#clip1_1100_70)">
<path d="M5.45552 20.9114V11.6866L2.58026 9.06935L0.00195312 7.61694V19.2835C0.00195312 20.1842 0.735413 20.9114 1.63806 20.9114H5.45552Z" fill="#4285F4"/>
<path d="M18.5444 20.9113H22.3619C23.2673 20.9113 23.998 20.1814 23.998 19.2834V7.61694L21.0777 9.2805L18.5444 11.6865V20.9113Z" fill="#34A853"/>
<path d="M5.45569 11.6867L5.06445 8.08232L5.45569 4.63257L11.9999 9.51626L18.5442 4.63257L18.9818 7.89607L18.5442 11.6867L11.9999 16.5704L5.45569 11.6867Z" fill="#EA4335"/>
<path d="M18.5444 4.63247V11.6866L23.998 7.61692V5.44639C23.998 3.43328 21.6884 2.28566 20.0715 3.49297L18.5444 4.63247Z" fill="#FBBC04"/>
<path d="M0.00195312 7.61697L2.51015 9.48878L5.45552 11.6866V4.63251L3.92842 3.49301C2.30872 2.28561 0.00195312 3.43332 0.00195312 5.44633V7.61687V7.61697Z" fill="#C5221F"/>
</g>
</g>
<defs>
<clipPath id="clip0_1100_70">
<rect width="24" height="24" fill="white"/>
</clipPath>
<clipPath id="clip1_1100_70">
<rect width="24" height="18" fill="white" transform="translate(0 3)"/>
</clipPath>
</defs>
</svg>
