<svg width="182" height="32" viewBox="0 0 182 32" fill="none" xmlns="http://www.w3.org/2000/svg">
<path d="M63.8601 12.1193C63.718 11.6591 63.522 11.2472 63.272 10.8835C63.0277 10.5142 62.7322 10.1989 62.3857 9.9375C62.0447 9.67614 61.6527 9.48011 61.2095 9.34943C60.7663 9.21307 60.2834 9.14489 59.7607 9.14489C58.8232 9.14489 57.9879 9.38068 57.255 9.85227C56.522 10.3239 55.9453 11.017 55.5249 11.9318C55.1101 12.8409 54.9027 13.9489 54.9027 15.2557C54.9027 16.5739 55.1101 17.6903 55.5249 18.6051C55.9396 19.5199 56.5163 20.2159 57.255 20.6932C57.9936 21.1648 58.8516 21.4006 59.8288 21.4006C60.7152 21.4006 61.4822 21.2301 62.13 20.8892C62.7834 20.5483 63.2862 20.0653 63.6385 19.4403C63.9908 18.8097 64.1669 18.071 64.1669 17.2244L64.8828 17.3352H60.1442V14.8636H67.2266V16.9602C67.2266 18.4545 66.9084 19.7472 66.272 20.8381C65.6357 21.929 64.7607 22.7699 63.647 23.3608C62.5334 23.946 61.255 24.2386 59.8118 24.2386C58.2038 24.2386 56.7919 23.8778 55.576 23.1562C54.3658 22.429 53.4197 21.3977 52.7379 20.0625C52.0618 18.7216 51.7237 17.1307 51.7237 15.2898C51.7237 13.8807 51.9226 12.6222 52.3203 11.5142C52.7237 10.4062 53.2862 9.46591 54.0078 8.69318C54.7294 7.91477 55.576 7.32386 56.5476 6.92045C57.5192 6.51136 58.576 6.30682 59.718 6.30682C60.6839 6.30682 61.5845 6.44886 62.4197 6.73295C63.255 7.01136 63.9964 7.40909 64.6442 7.92614C65.2976 8.44318 65.8345 9.05682 66.255 9.76704C66.6754 10.4773 66.951 11.2614 67.0817 12.1193H63.8601ZM75.858 24.2557C74.5795 24.2557 73.4716 23.9744 72.5341 23.4119C71.5966 22.8494 70.8693 22.0625 70.3523 21.0511C69.8409 20.0398 69.5852 18.858 69.5852 17.5057C69.5852 16.1534 69.8409 14.9687 70.3523 13.9517C70.8693 12.9347 71.5966 12.1449 72.5341 11.5824C73.4716 11.0199 74.5795 10.7386 75.858 10.7386C77.1364 10.7386 78.2443 11.0199 79.1818 11.5824C80.1193 12.1449 80.8438 12.9347 81.3551 13.9517C81.8722 14.9687 82.1307 16.1534 82.1307 17.5057C82.1307 18.858 81.8722 20.0398 81.3551 21.0511C80.8438 22.0625 80.1193 22.8494 79.1818 23.4119C78.2443 23.9744 77.1364 24.2557 75.858 24.2557ZM75.875 21.7841C76.5682 21.7841 77.1477 21.5937 77.6136 21.2131C78.0795 20.8267 78.4261 20.3097 78.6534 19.6619C78.8864 19.0142 79.0028 18.2926 79.0028 17.4972C79.0028 16.696 78.8864 15.9716 78.6534 15.3239C78.4261 14.6705 78.0795 14.1506 77.6136 13.7642C77.1477 13.3778 76.5682 13.1847 75.875 13.1847C75.1648 13.1847 74.5739 13.3778 74.1023 13.7642C73.6364 14.1506 73.2869 14.6705 73.054 15.3239C72.8267 15.9716 72.7131 16.696 72.7131 17.4972C72.7131 18.2926 72.8267 19.0142 73.054 19.6619C73.2869 20.3097 73.6364 20.8267 74.1023 21.2131C74.5739 21.5937 75.1648 21.7841 75.875 21.7841ZM90.4595 24.2557C89.1811 24.2557 88.0732 23.9744 87.1357 23.4119C86.1982 22.8494 85.4709 22.0625 84.9538 21.0511C84.4425 20.0398 84.1868 18.858 84.1868 17.5057C84.1868 16.1534 84.4425 14.9687 84.9538 13.9517C85.4709 12.9347 86.1982 12.1449 87.1357 11.5824C88.0732 11.0199 89.1811 10.7386 90.4595 10.7386C91.7379 10.7386 92.8459 11.0199 93.7834 11.5824C94.7209 12.1449 95.4453 12.9347 95.9567 13.9517C96.4737 14.9687 96.7322 16.1534 96.7322 17.5057C96.7322 18.858 96.4737 20.0398 95.9567 21.0511C95.4453 22.0625 94.7209 22.8494 93.7834 23.4119C92.8459 23.9744 91.7379 24.2557 90.4595 24.2557ZM90.4766 21.7841C91.1697 21.7841 91.7493 21.5937 92.2152 21.2131C92.6811 20.8267 93.0277 20.3097 93.255 19.6619C93.4879 19.0142 93.6044 18.2926 93.6044 17.4972C93.6044 16.696 93.4879 15.9716 93.255 15.3239C93.0277 14.6705 92.6811 14.1506 92.2152 13.7642C91.7493 13.3778 91.1697 13.1847 90.4766 13.1847C89.7663 13.1847 89.1754 13.3778 88.7038 13.7642C88.2379 14.1506 87.8885 14.6705 87.6555 15.3239C87.4283 15.9716 87.3146 16.696 87.3146 17.4972C87.3146 18.2926 87.4283 19.0142 87.6555 19.6619C87.8885 20.3097 88.2379 20.8267 88.7038 21.2131C89.1754 21.5937 89.7663 21.7841 90.4766 21.7841ZM105.044 29.1818C103.936 29.1818 102.984 29.0313 102.189 28.7301C101.393 28.4347 100.754 28.0369 100.271 27.5369C99.7884 27.0369 99.4531 26.483 99.2656 25.875L102.044 25.2017C102.169 25.4574 102.351 25.7102 102.589 25.9602C102.828 26.2159 103.149 26.4261 103.553 26.5909C103.962 26.7614 104.476 26.8466 105.095 26.8466C105.97 26.8466 106.695 26.6335 107.268 26.2074C107.842 25.7869 108.129 25.0938 108.129 24.1278V21.6477H107.976C107.817 21.9659 107.584 22.2926 107.277 22.6278C106.976 22.9631 106.575 23.2443 106.075 23.4716C105.581 23.6989 104.959 23.8125 104.209 23.8125C103.203 23.8125 102.291 23.5767 101.473 23.1051C100.661 22.6278 100.013 21.9176 99.5298 20.9744C99.0526 20.0256 98.8139 18.8381 98.8139 17.4119C98.8139 15.9744 99.0526 14.7614 99.5298 13.7727C100.013 12.7784 100.663 12.0256 101.482 11.5142C102.3 10.9972 103.212 10.7386 104.217 10.7386C104.984 10.7386 105.615 10.8693 106.109 11.1307C106.609 11.3864 107.007 11.696 107.303 12.0597C107.598 12.4176 107.822 12.7557 107.976 13.0739H108.146V10.9091H111.189V24.2131C111.189 25.3324 110.922 26.2585 110.388 26.9915C109.854 27.7244 109.124 28.2727 108.197 28.6364C107.271 29 106.22 29.1818 105.044 29.1818ZM105.07 21.392C105.723 21.392 106.28 21.233 106.74 20.9148C107.2 20.5966 107.55 20.1392 107.788 19.5426C108.027 18.946 108.146 18.2301 108.146 17.3949C108.146 16.571 108.027 15.8494 107.788 15.2301C107.555 14.6108 107.209 14.1307 106.749 13.7898C106.294 13.4432 105.734 13.2699 105.07 13.2699C104.382 13.2699 103.808 13.4489 103.348 13.8068C102.888 14.1648 102.541 14.6562 102.308 15.2812C102.075 15.9006 101.959 16.6051 101.959 17.3949C101.959 18.196 102.075 18.8977 102.308 19.5C102.547 20.0966 102.896 20.5625 103.357 20.8977C103.822 21.2273 104.393 21.392 105.07 21.392ZM117.436 6.54545V24H114.351V6.54545H117.436ZM126.404 24.2557C125.092 24.2557 123.958 23.983 123.004 23.4375C122.055 22.8864 121.325 22.108 120.813 21.1023C120.302 20.0909 120.046 18.9006 120.046 17.5312C120.046 16.1847 120.302 15.0028 120.813 13.9858C121.33 12.9631 122.052 12.1676 122.978 11.5994C123.904 11.0256 124.992 10.7386 126.242 10.7386C127.049 10.7386 127.81 10.8693 128.526 11.1307C129.248 11.3864 129.884 11.7841 130.435 12.3239C130.992 12.8636 131.43 13.5511 131.748 14.3864C132.066 15.2159 132.225 16.2045 132.225 17.3523V18.2983H121.495V16.2188H129.268C129.262 15.6278 129.134 15.1023 128.884 14.642C128.634 14.1761 128.285 13.8097 127.836 13.5426C127.393 13.2756 126.876 13.142 126.285 13.142C125.654 13.142 125.1 13.2955 124.623 13.6023C124.146 13.9034 123.773 14.3011 123.506 14.7955C123.245 15.2841 123.112 15.821 123.106 16.4062V18.2216C123.106 18.983 123.245 19.6364 123.523 20.1818C123.802 20.7216 124.191 21.1364 124.691 21.4261C125.191 21.7102 125.776 21.8523 126.447 21.8523C126.896 21.8523 127.302 21.7898 127.665 21.6648C128.029 21.5341 128.344 21.3438 128.612 21.0938C128.879 20.8438 129.08 20.5341 129.217 20.1648L132.097 20.4886C131.915 21.25 131.569 21.9148 131.058 22.483C130.552 23.0455 129.904 23.483 129.114 23.7955C128.325 24.1023 127.421 24.2557 126.404 24.2557ZM140.925 24V6.54545H147.47C148.811 6.54545 149.936 6.79545 150.845 7.29545C151.76 7.79545 152.45 8.48295 152.916 9.35795C153.388 10.2273 153.624 11.2159 153.624 12.3239C153.624 13.4432 153.388 14.4375 152.916 15.3068C152.445 16.1761 151.749 16.8608 150.828 17.3608C149.908 17.8551 148.774 18.1023 147.428 18.1023H143.089V15.5028H147.001C147.786 15.5028 148.428 15.3665 148.928 15.0938C149.428 14.821 149.797 14.446 150.036 13.9688C150.28 13.4915 150.402 12.9432 150.402 12.3239C150.402 11.7045 150.28 11.1591 150.036 10.6875C149.797 10.2159 149.425 9.84943 148.919 9.58807C148.419 9.32102 147.774 9.1875 146.984 9.1875H144.087V24H140.925ZM159.766 24.2642C158.937 24.2642 158.19 24.1165 157.525 23.821C156.866 23.5199 156.343 23.0767 155.957 22.4915C155.576 21.9062 155.386 21.1847 155.386 20.3267C155.386 19.5881 155.522 18.9773 155.795 18.4943C156.067 18.0114 156.44 17.625 156.911 17.3352C157.383 17.0455 157.914 16.8267 158.505 16.679C159.102 16.5256 159.718 16.4148 160.354 16.3466C161.121 16.267 161.744 16.196 162.221 16.1335C162.698 16.0653 163.045 15.9631 163.261 15.8267C163.482 15.6847 163.593 15.4659 163.593 15.1705V15.1193C163.593 14.4773 163.403 13.9801 163.022 13.6278C162.641 13.2756 162.093 13.0994 161.377 13.0994C160.621 13.0994 160.022 13.2642 159.579 13.5938C159.141 13.9233 158.846 14.3125 158.692 14.7614L155.812 14.3523C156.039 13.5568 156.414 12.892 156.937 12.358C157.46 11.8182 158.099 11.4148 158.854 11.1477C159.61 10.875 160.445 10.7386 161.36 10.7386C161.991 10.7386 162.619 10.8125 163.244 10.9602C163.869 11.108 164.44 11.3523 164.957 11.6932C165.474 12.0284 165.888 12.4858 166.201 13.0653C166.519 13.6449 166.678 14.3693 166.678 15.2386V24H163.712V22.2017H163.61C163.423 22.5653 163.158 22.9062 162.817 23.2244C162.482 23.5369 162.059 23.7898 161.548 23.983C161.042 24.1705 160.448 24.2642 159.766 24.2642ZM160.567 21.9972C161.187 21.9972 161.724 21.875 162.178 21.6307C162.633 21.3807 162.982 21.0511 163.227 20.642C163.477 20.233 163.602 19.7869 163.602 19.304V17.7614C163.505 17.8409 163.34 17.9148 163.107 17.983C162.88 18.0511 162.624 18.1108 162.34 18.1619C162.056 18.2131 161.775 18.2585 161.496 18.2983C161.218 18.3381 160.977 18.3722 160.772 18.4006C160.312 18.4631 159.9 18.5653 159.536 18.7074C159.173 18.8494 158.886 19.0483 158.675 19.304C158.465 19.554 158.36 19.8778 158.36 20.2756C158.36 20.8438 158.567 21.2727 158.982 21.5625C159.397 21.8523 159.925 21.9972 160.567 21.9972ZM171.229 28.9091C170.809 28.9091 170.42 28.875 170.062 28.8068C169.71 28.7443 169.428 28.6705 169.218 28.5852L169.934 26.1818C170.383 26.3125 170.783 26.375 171.136 26.3693C171.488 26.3636 171.798 26.2528 172.065 26.0369C172.337 25.8267 172.567 25.4744 172.755 24.9801L173.019 24.2727L168.272 10.9091H171.545L174.562 20.7955H174.698L177.724 10.9091H181.005L175.763 25.5852C175.519 26.2784 175.195 26.8722 174.792 27.3665C174.388 27.8665 173.894 28.2472 173.309 28.5085C172.729 28.7756 172.036 28.9091 171.229 28.9091Z" fill="#132F3A"/>
<g clip-path="url(#clip0_1470_409)">
<path d="M34.1333 6.18992C30.4269 4.05032 25.6874 5.32166 23.5454 9.02823L18.1462 18.3812C16.584 21.0821 18.5953 22.0258 20.8379 23.3705L26.0332 26.369C27.7926 27.3839 30.0398 26.7815 31.0546 25.0244L36.6051 15.4124C38.4696 12.1824 37.3633 8.05458 34.1333 6.18992Z" fill="#EA4335"/>
<path d="M28.0239 10.0613L22.8286 7.06265C19.9606 5.47058 18.3364 5.36518 17.159 7.23674L9.49645 20.5071C7.35686 24.2111 8.6304 28.9485 12.3346 31.0834C15.5646 32.948 19.6926 31.8417 21.5572 28.6117L29.3664 15.0848C30.3857 13.3256 29.7833 11.076 28.0239 10.0613Z" fill="#FBBC04"/>
<path d="M29.0239 3.23949L25.3747 1.13175C21.3385 -1.1978 16.1774 0.183489 13.8477 4.21975L6.89985 16.2529C5.87365 18.0283 6.48297 20.3008 8.25839 21.3246L12.345 23.6841C14.363 24.8502 16.9424 24.1582 18.1085 22.1402L26.0458 8.3934C27.6906 5.54613 31.3307 4.57028 34.1779 6.21505L29.0239 3.23934V3.23949Z" fill="#34A853"/>
<path d="M14.8351 7.66279L10.8904 5.39035C9.13113 4.3778 6.88393 4.97787 5.86918 6.73274L1.13626 14.9106C-1.19328 18.9355 0.188006 24.085 4.22426 26.4079L7.22742 28.1374L10.8698 30.2356L12.4505 31.1449C9.6443 29.2666 8.75314 25.5029 10.4688 22.5387L11.6945 20.422L16.182 12.6679C17.1945 10.9177 16.5921 8.6752 14.8351 7.66264V7.66279Z" fill="#4285F4"/>
</g>
<defs>
<clipPath id="clip0_1470_409">
<rect width="37.5867" height="32" fill="white"/>
</clipPath>
</defs>
</svg>
