<svg width="66" height="66" viewBox="0 0 66 66" fill="none" xmlns="http://www.w3.org/2000/svg">
<circle cx="33" cy="33" r="33" fill="#6A88F7" fill-opacity="0.1"/>
<g clip-path="url(#clip0_2_564)">
<path d="M33 42.3333H35.6666V25L44.192 28.6533C44.432 28.7562 44.6365 28.9273 44.7801 29.1453C44.9238 29.3634 45.0002 29.6189 45 29.88V42.3333H47.6666V45H18.3333V42.3333H21V24.5333C20.9999 24.2753 21.0748 24.0229 21.2153 23.8066C21.3559 23.5903 21.5562 23.4194 21.792 23.3146L32.0626 18.7493C32.1643 18.7042 32.2755 18.6852 32.3864 18.694C32.4972 18.7029 32.6041 18.7393 32.6972 18.8C32.7904 18.8607 32.8669 18.9437 32.9198 19.0415C32.9726 19.1393 33.0002 19.2488 33 19.36V42.3333Z" fill="#6A88F7"/>
</g>
<defs>
<clipPath id="clip0_2_564">
<rect width="32" height="32" fill="white" transform="translate(17 17)"/>
</clipPath>
</defs>
</svg>
