<svg width="44" height="44" viewBox="0 0 44 44" fill="none" xmlns="http://www.w3.org/2000/svg">
<rect width="44" height="44" rx="6" fill="#9B7043"/>
<g clip-path="url(#clip0_1470_549)">
<path d="M22 19C21.2044 19 20.4413 19.3161 19.8787 19.8787C19.3161 20.4413 19 21.2044 19 22C19 22.7956 19.3161 23.5587 19.8787 24.1213C20.4413 24.6839 21.2044 25 22 25C22.7956 25 23.5587 24.6839 24.1213 24.1213C24.6839 23.5587 25 22.7956 25 22C25 21.2044 24.6839 20.4413 24.1213 19.8787C23.5587 19.3161 22.7956 19 22 19ZM22 17C23.3261 17 24.5979 17.5268 25.5355 18.4645C26.4732 19.4021 27 20.6739 27 22C27 23.3261 26.4732 24.5979 25.5355 25.5355C24.5979 26.4732 23.3261 27 22 27C20.6739 27 19.4021 26.4732 18.4645 25.5355C17.5268 24.5979 17 23.3261 17 22C17 20.6739 17.5268 19.4021 18.4645 18.4645C19.4021 17.5268 20.6739 17 22 17ZM28.5 16.75C28.5 17.0815 28.3683 17.3995 28.1339 17.6339C27.8995 17.8683 27.5815 18 27.25 18C26.9185 18 26.6005 17.8683 26.3661 17.6339C26.1317 17.3995 26 17.0815 26 16.75C26 16.4185 26.1317 16.1005 26.3661 15.8661C26.6005 15.6317 26.9185 15.5 27.25 15.5C27.5815 15.5 27.8995 15.6317 28.1339 15.8661C28.3683 16.1005 28.5 16.4185 28.5 16.75ZM22 14C19.526 14 19.122 14.007 17.971 14.058C17.187 14.095 16.661 14.2 16.173 14.39C15.739 14.558 15.426 14.759 15.093 15.093C14.78 15.3954 14.5394 15.7646 14.389 16.173C14.199 16.663 14.094 17.188 14.058 17.971C14.006 19.075 14 19.461 14 22C14 24.474 14.007 24.878 14.058 26.029C14.095 26.812 14.2 27.339 14.389 27.826C14.559 28.261 14.759 28.574 15.091 28.906C15.428 29.242 15.741 29.443 16.171 29.609C16.665 29.8 17.191 29.906 17.971 29.942C19.075 29.994 19.461 30 22 30C24.474 30 24.878 29.993 26.029 29.942C26.811 29.905 27.338 29.8 27.826 29.611C28.259 29.442 28.574 29.241 28.906 28.909C29.243 28.572 29.444 28.259 29.61 27.829C29.8 27.336 29.906 26.809 29.942 26.029C29.994 24.925 30 24.539 30 22C30 19.526 29.993 19.122 29.942 17.971C29.905 17.189 29.8 16.661 29.61 16.173C29.4593 15.765 29.2191 15.396 28.907 15.093C28.6047 14.7798 28.2355 14.5392 27.827 14.389C27.337 14.199 26.811 14.094 26.029 14.058C24.925 14.006 24.539 14 22 14ZM22 12C24.717 12 25.056 12.01 26.122 12.06C27.187 12.11 27.912 12.277 28.55 12.525C29.21 12.779 29.766 13.123 30.322 13.678C30.8305 14.1779 31.224 14.7826 31.475 15.45C31.722 16.087 31.89 16.813 31.94 17.878C31.987 18.944 32 19.283 32 22C32 24.717 31.99 25.056 31.94 26.122C31.89 27.187 31.722 27.912 31.475 28.55C31.2247 29.2178 30.8311 29.8226 30.322 30.322C29.822 30.8303 29.2173 31.2238 28.55 31.475C27.913 31.722 27.187 31.89 26.122 31.94C25.056 31.987 24.717 32 22 32C19.283 32 18.944 31.99 17.878 31.94C16.813 31.89 16.088 31.722 15.45 31.475C14.7823 31.2245 14.1775 30.8309 13.678 30.322C13.1694 29.8222 12.7759 29.2175 12.525 28.55C12.277 27.913 12.11 27.187 12.06 26.122C12.013 25.056 12 24.717 12 22C12 19.283 12.01 18.944 12.06 17.878C12.11 16.812 12.277 16.088 12.525 15.45C12.7752 14.7822 13.1688 14.1773 13.678 13.678C14.1777 13.1692 14.7824 12.7757 15.45 12.525C16.088 12.277 16.812 12.11 17.878 12.06C18.944 12.013 19.283 12 22 12Z" fill="white"/>
</g>
<defs>
<clipPath id="clip0_1470_549">
<rect width="24" height="24" fill="white" transform="translate(10 10)"/>
</clipPath>
</defs>
</svg>
