<svg width="18" height="20" viewBox="0 0 18 20" fill="none" xmlns="http://www.w3.org/2000/svg">
<path d="M14.7918 8.33329C14.7918 13.3333 8.87516 18.3333 8.87516 18.3333C8.87516 18.3333 2.9585 13.3333 2.9585 8.33329C2.9585 6.56518 3.58186 4.86949 4.69145 3.61925C5.80104 2.36901 7.30597 1.66663 8.87516 1.66663C10.4444 1.66663 11.9493 2.36901 13.0589 3.61925C14.1685 4.86949 14.7918 6.56518 14.7918 8.33329V8.33329Z" stroke="#FCA412" stroke-width="1.5" stroke-linecap="round" stroke-linejoin="round"/>
<path d="M8.875 10.8334C10.1004 10.8334 11.0938 9.71409 11.0938 8.33337C11.0938 6.95266 10.1004 5.83337 8.875 5.83337C7.64962 5.83337 6.65625 6.95266 6.65625 8.33337C6.65625 9.71409 7.64962 10.8334 8.875 10.8334Z" stroke="#FCA412" stroke-width="1.5" stroke-linecap="round" stroke-linejoin="round"/>
</svg>
