<svg width="66" height="66" viewBox="0 0 66 66" fill="none" xmlns="http://www.w3.org/2000/svg">
<circle cx="33" cy="33" r="33" fill="#3AB094" fill-opacity="0.1"/>
<g clip-path="url(#clip0_2_608)">
<path d="M31.6667 40.9173C28.977 40.5751 26.5185 39.2215 24.7909 37.1317C23.0634 35.0419 22.1964 32.3727 22.3662 29.6666C22.5359 26.9605 23.7298 24.4206 25.705 22.5631C27.6802 20.7057 30.2886 19.67 33 19.6666C35.7147 19.6646 38.3281 20.6977 40.3076 22.5555C42.287 24.4133 43.4837 26.956 43.6537 29.6653C43.8237 32.3747 42.9542 35.047 41.2225 37.1376C39.4907 39.2283 37.027 40.58 34.3333 40.9173V43.6826C39.5947 43.8053 43.6667 44.6466 43.6667 45.6666C43.6667 46.7706 38.8907 47.6666 33 47.6666C27.1093 47.6666 22.3333 46.7706 22.3333 45.6666C22.3333 44.6466 26.4053 43.8053 31.6667 43.6826V40.9173ZM33 33C33.7072 33 34.3855 32.719 34.8856 32.2189C35.3857 31.7188 35.6667 31.0405 35.6667 30.3333C35.6667 29.6261 35.3857 28.9478 34.8856 28.4477C34.3855 27.9476 33.7072 27.6666 33 27.6666C32.2928 27.6666 31.6145 27.9476 31.1144 28.4477C30.6143 28.9478 30.3333 29.6261 30.3333 30.3333C30.3333 31.0405 30.6143 31.7188 31.1144 32.2189C31.6145 32.719 32.2928 33 33 33Z" fill="#3AB094"/>
</g>
<defs>
<clipPath id="clip0_2_608">
<rect width="32" height="32" fill="white" transform="translate(17 17)"/>
</clipPath>
</defs>
</svg>
