<svg width="44" height="44" viewBox="0 0 44 44" fill="none" xmlns="http://www.w3.org/2000/svg">
<rect width="44" height="44" rx="6" fill="#EB4335"/>
<g clip-path="url(#clip0_1470_553)">
<path d="M23.3701 12.094C20.9774 11.7648 18.5463 12.3125 16.5259 13.6359C14.5055 14.9593 13.0321 16.9691 12.3779 19.294C11.7236 21.619 11.9327 24.1022 12.9665 26.285C14.0002 28.4679 15.7889 30.203 18.0021 31.17C17.9422 30.4018 17.9972 29.629 18.1651 28.877C18.3501 28.038 19.4611 23.414 19.4611 23.414C19.2399 22.9181 19.1293 22.3799 19.1371 21.837C19.1371 20.352 19.9941 19.244 21.0601 19.244C21.2516 19.2412 21.4415 19.2796 21.6168 19.3568C21.7921 19.4339 21.9487 19.5479 22.076 19.691C22.2034 19.8341 22.2984 20.0029 22.3547 20.1859C22.4109 20.369 22.4271 20.5621 22.4021 20.752C22.4021 21.652 21.8241 23.014 21.5221 24.292C21.4624 24.5263 21.4586 24.7715 21.511 25.0076C21.5635 25.2437 21.6706 25.4642 21.8239 25.6513C21.9771 25.8384 22.1722 25.9869 22.3933 26.0848C22.6145 26.1827 22.8555 26.2273 23.0971 26.215C24.9951 26.215 26.2671 23.784 26.2671 20.914C26.2671 18.714 24.8101 17.066 22.1241 17.066C21.4815 17.041 20.8405 17.1469 20.24 17.3772C19.6396 17.6075 19.0922 17.9575 18.6311 18.4058C18.1701 18.8542 17.805 19.3916 17.5579 19.9853C17.3109 20.5791 17.1871 21.2169 17.1941 21.86C17.1655 22.5733 17.3956 23.2729 17.8421 23.83C17.9255 23.8922 17.9864 23.98 18.0157 24.0799C18.0449 24.1798 18.0408 24.2865 18.0041 24.384C17.9581 24.568 17.8421 25.007 17.7961 25.168C17.7865 25.2226 17.7643 25.2741 17.7311 25.3186C17.698 25.363 17.6548 25.399 17.6052 25.4237C17.5556 25.4484 17.5009 25.4611 17.4455 25.4608C17.39 25.4605 17.3354 25.4472 17.2861 25.422C15.9021 24.868 15.2501 23.345 15.2501 21.606C15.2501 18.759 17.6341 15.351 22.4041 15.351C26.2001 15.351 28.7241 18.128 28.7241 21.098C28.7241 25.007 26.5471 27.946 23.3301 27.946C22.8493 27.9613 22.3724 27.8552 21.9434 27.6374C21.5145 27.4196 21.1474 27.0972 20.8761 26.7C20.8761 26.7 20.2981 29.016 20.1841 29.454C19.9514 30.2107 19.608 30.9288 19.1651 31.585C20.0881 31.865 21.0471 32.005 22.0111 32.001C23.3247 32.002 24.6256 31.7439 25.8393 31.2415C27.053 30.7391 28.1556 30.0022 29.0842 29.0731C30.0127 28.1439 30.7488 27.0407 31.2504 25.8267C31.7519 24.6126 32.0091 23.3115 32.0071 21.998C32.0059 19.583 31.1309 17.2499 29.5437 15.4297C27.9566 13.6095 25.7644 12.425 23.3721 12.095L23.3701 12.094Z" fill="white"/>
</g>
<defs>
<clipPath id="clip0_1470_553">
<rect width="24" height="24" fill="white" transform="translate(10 10)"/>
</clipPath>
</defs>
</svg>
