<svg width="62" height="62" viewBox="0 0 62 62" fill="none" xmlns="http://www.w3.org/2000/svg">
<g clip-path="url(#clip0_2_526)">
<path d="M5.16667 10.3152C5.17139 9.63681 5.44283 8.98746 5.92232 8.50748C6.40182 8.0275 7.0509 7.75541 7.72933 7.75H54.2707C55.6863 7.75 56.8333 8.89958 56.8333 10.3152V51.6847C56.8286 52.3632 56.5572 53.0125 56.0777 53.4925C55.5982 53.9725 54.9491 54.2446 54.2707 54.25H7.72933C7.04943 54.2493 6.39762 53.9787 5.9171 53.4977C5.43658 53.0167 5.16667 52.3646 5.16667 51.6847V10.3152ZM10.3333 12.9167V49.0833H51.6667V12.9167H10.3333ZM15.5 18.0833H31V33.5833H15.5V18.0833ZM20.6667 23.25V28.4167H25.8333V23.25H20.6667ZM15.5 38.75H46.5V43.9167H15.5V38.75ZM36.1667 18.0833H46.5V23.25H36.1667V18.0833ZM36.1667 28.4167H46.5V33.5833H36.1667V28.4167Z" fill="url(#paint0_linear_2_526)"/>
</g>
<defs>
<linearGradient id="paint0_linear_2_526" x1="-25.6667" y1="-5.75" x2="42.2968" y2="61.3745" gradientUnits="userSpaceOnUse">
<stop stop-color="#FFDF21"/>
<stop offset="1" stop-color="#FCA412"/>
</linearGradient>
<clipPath id="clip0_2_526">
<rect width="62" height="62" fill="white"/>
</clipPath>
</defs>
</svg>
