<svg width="20" height="20" viewBox="0 0 20 20" fill="none" xmlns="http://www.w3.org/2000/svg">
<g clip-path="url(#clip0_1470_490)">
<path d="M11.6668 11.8767V18.3334H3.3335C3.33324 17.3158 3.56593 16.3116 4.01375 15.3979C4.46156 14.4841 5.11261 13.685 5.91701 13.0617C6.72141 12.4385 7.65781 12.0077 8.65446 11.8022C9.6511 11.5968 10.6815 11.6223 11.6668 11.8767ZM10.0002 10.8334C7.23766 10.8334 5.00016 8.59587 5.00016 5.83337C5.00016 3.07087 7.23766 0.833374 10.0002 0.833374C12.7627 0.833374 15.0002 3.07087 15.0002 5.83337C15.0002 8.59587 12.7627 10.8334 10.0002 10.8334ZM15.0002 14.1667V11.6667H16.6668V14.1667H19.1668V15.8334H16.6668V18.3334H15.0002V15.8334H12.5002V14.1667H15.0002Z" fill="#FCA412"/>
</g>
<defs>
<clipPath id="clip0_1470_490">
<rect width="20" height="20" fill="white"/>
</clipPath>
</defs>
</svg>
