<svg width="20" height="20" viewBox="0 0 20 20" fill="none" xmlns="http://www.w3.org/2000/svg">
<g clip-path="url(#clip0_1470_495)">
<path d="M11.3133 14.3926L7.05492 12.0701C6.64617 12.4758 6.12643 12.7514 5.56125 12.8622C4.99606 12.973 4.41072 12.914 3.87903 12.6926C3.34733 12.4712 2.89308 12.0974 2.57355 11.6182C2.25401 11.139 2.0835 10.576 2.0835 10.0001C2.0835 9.42411 2.25401 8.86105 2.57355 8.38188C2.89308 7.9027 3.34733 7.52886 3.87903 7.30747C4.41072 7.08608 4.99606 7.02707 5.56125 7.13786C6.12643 7.24866 6.64617 7.5243 7.05492 7.93005L11.3133 5.60755C11.1672 4.92233 11.2727 4.20744 11.6104 3.5936C11.9481 2.97976 12.4955 2.50799 13.1525 2.26458C13.8095 2.02116 14.5321 2.02236 15.1883 2.26796C15.8444 2.51355 16.3902 2.98713 16.7259 3.60208C17.0616 4.21704 17.1647 4.93228 17.0164 5.61701C16.8681 6.30174 16.4782 6.91021 15.9182 7.33114C15.3581 7.75206 14.6652 7.95732 13.9663 7.90938C13.2673 7.86144 12.6089 7.5635 12.1116 7.07005L7.85326 9.39255C7.9382 9.7931 7.9382 10.207 7.85326 10.6076L12.1116 12.9301C12.6089 12.4366 13.2673 12.1387 13.9663 12.0907C14.6652 12.0428 15.3581 12.248 15.9182 12.669C16.4782 13.0899 16.8681 13.6984 17.0164 14.3831C17.1647 15.0678 17.0616 15.7831 16.7259 16.398C16.3902 17.013 15.8444 17.4866 15.1883 17.7321C14.5321 17.9777 13.8095 17.9789 13.1525 17.7355C12.4955 17.4921 11.9481 17.0203 11.6104 16.4065C11.2727 15.7927 11.1672 15.0778 11.3133 14.3926Z" fill="#FCA412"/>
</g>
<defs>
<clipPath id="clip0_1470_495">
<rect width="20" height="20" fill="white"/>
</clipPath>
</defs>
</svg>
