<svg width="66" height="66" viewBox="0 0 66 66" fill="none" xmlns="http://www.w3.org/2000/svg">
<circle cx="33" cy="33" r="33" fill="#2EACFC" fill-opacity="0.1"/>
<g clip-path="url(#clip0_2_588)">
<path d="M35.1013 40.028L28.288 36.312C27.634 36.9612 26.8024 37.4022 25.8981 37.5795C24.9938 37.7568 24.0573 37.6623 23.2066 37.3081C22.3558 36.9539 21.629 36.3557 21.1178 35.5891C20.6065 34.8224 20.3337 33.9215 20.3337 33C20.3337 32.0785 20.6065 31.1776 21.1178 30.4109C21.629 29.6442 22.3558 29.0461 23.2066 28.6919C24.0573 28.3376 24.9938 28.2432 25.8981 28.4205C26.8024 28.5978 27.634 29.0388 28.288 29.688L35.1013 25.972C34.8677 24.8756 35.0364 23.7318 35.5768 22.7497C36.1171 21.7675 36.993 21.0127 38.0441 20.6232C39.0953 20.2338 40.2515 20.2357 41.3013 20.6286C42.3512 21.0216 43.2245 21.7793 43.7616 22.7632C44.2987 23.7472 44.4637 24.8916 44.2264 25.9871C43.9891 27.0827 43.3653 28.0562 42.4692 28.7297C41.5731 29.4032 40.4645 29.7316 39.3462 29.6549C38.2278 29.5782 37.1744 29.1015 36.3787 28.312L29.5653 32.028C29.7012 32.6689 29.7012 33.3311 29.5653 33.972L36.3787 37.688C37.1744 36.8985 38.2278 36.4218 39.3462 36.3451C40.4645 36.2684 41.5731 36.5968 42.4692 37.2703C43.3653 37.9437 43.9891 38.9173 44.2264 40.0128C44.4637 41.1084 44.2987 42.2528 43.7616 43.2367C43.2245 44.2207 42.3512 44.9784 41.3013 45.3713C40.2515 45.7643 39.0953 45.7662 38.0441 45.3767C36.993 44.9873 36.1171 44.2325 35.5768 43.2503C35.0364 42.2682 34.8677 41.1243 35.1013 40.028Z" fill="#2EACFC"/>
</g>
<defs>
<clipPath id="clip0_2_588">
<rect width="32" height="32" fill="white" transform="translate(17 17)"/>
</clipPath>
</defs>
</svg>
