<svg width="62" height="62" viewBox="0 0 62 62" fill="none" xmlns="http://www.w3.org/2000/svg">
<g clip-path="url(#clip0_2_517)">
<path d="M54.25 7.75V12.9167C54.25 37.7864 40.3697 49.0833 23.25 49.0833H13.5444C13.1233 51.4393 12.9167 54.0097 12.9167 56.8333H7.75C7.75 53.3122 8.04967 50.1167 8.64383 47.1923C8.04967 43.8495 7.75 39.3132 7.75 33.5833C7.75 19.3156 19.3156 7.75 33.5833 7.75C38.75 7.75 43.9167 10.3333 54.25 7.75ZM33.5833 12.9167C22.1702 12.9167 12.9167 22.1702 12.9167 33.5833C12.9167 34.5185 12.9244 35.4201 12.9425 36.2855C16.182 31.1757 20.9276 27.1379 27.1353 23.591L29.698 28.0757C22.3226 32.2917 17.4297 37.0812 14.9213 43.9167H23.25C38.7887 43.9167 48.7501 33.6531 49.0756 13.919C45.5312 14.2626 42.2375 14.043 38.1739 13.4333C35.2031 12.9864 34.6192 12.9167 33.5833 12.9167Z" fill="url(#paint0_linear_2_517)"/>
</g>
<defs>
<linearGradient id="paint0_linear_2_517" x1="-20" y1="-6.5" x2="50.6983" y2="53.0354" gradientUnits="userSpaceOnUse">
<stop stop-color="#FFDF21"/>
<stop offset="1" stop-color="#FCA412"/>
</linearGradient>
<clipPath id="clip0_2_517">
<rect width="62" height="62" fill="white"/>
</clipPath>
</defs>
</svg>
