<svg width="30" height="28" viewBox="0 0 30 28" fill="none" xmlns="http://www.w3.org/2000/svg">
<path d="M14.4673 0.463523C14.617 0.00286782 15.2687 0.00286996 15.4184 0.463525L18.4228 9.71024C18.4898 9.91625 18.6818 10.0557 18.8984 10.0557H28.6209C29.1053 10.0557 29.3067 10.6755 28.9148 10.9602L21.0491 16.675C20.8739 16.8023 20.8005 17.028 20.8675 17.234L23.8719 26.4807C24.0216 26.9414 23.4943 27.3245 23.1025 27.0398L15.2368 21.325C15.0615 21.1977 14.8242 21.1977 14.649 21.325L6.78326 27.0398C6.3914 27.3245 5.86416 26.9414 6.01384 26.4807L9.01827 17.234C9.08521 17.028 9.01188 16.8023 8.83664 16.675L0.970915 10.9602C0.579058 10.6755 0.780447 10.0557 1.26481 10.0557H10.9874C11.204 10.0557 11.396 9.91625 11.4629 9.71024L14.4673 0.463523Z" fill="#D1D1D6"/>
</svg>
