<svg width="44" height="44" viewBox="0 0 44 44" fill="none" xmlns="http://www.w3.org/2000/svg">
<rect width="44" height="44" rx="6" fill="#2CCAFF"/>
<g clip-path="url(#clip0_1470_545)">
<path d="M32.1618 15.656C31.3984 15.9937 30.5888 16.2155 29.7598 16.314C30.6336 15.7915 31.2875 14.9691 31.5998 14C30.7798 14.488 29.8808 14.83 28.9438 15.015C28.3144 14.3416 27.4802 13.895 26.5708 13.7446C25.6614 13.5943 24.7277 13.7485 23.9151 14.1835C23.1024 14.6185 22.4562 15.3097 22.0769 16.1498C21.6976 16.99 21.6066 17.9318 21.8178 18.829C20.1549 18.7457 18.5281 18.3136 17.0431 17.5607C15.5581 16.8079 14.2479 15.7511 13.1978 14.459C12.8261 15.0975 12.6308 15.8233 12.6318 16.562C12.6318 18.012 13.3698 19.293 14.4918 20.043C13.8278 20.0221 13.1784 19.8428 12.5978 19.52V19.572C12.598 20.5377 12.9322 21.4737 13.5437 22.2211C14.1551 22.9686 15.0063 23.4815 15.9528 23.673C15.3364 23.8401 14.6901 23.8647 14.0628 23.745C14.3297 24.5763 14.8498 25.3032 15.5504 25.8242C16.251 26.3451 17.0969 26.6338 17.9698 26.65C17.1023 27.3314 16.109 27.835 15.0467 28.1322C13.9844 28.4294 12.8739 28.5143 11.7788 28.382C13.6905 29.6115 15.9159 30.2642 18.1888 30.262C25.8818 30.262 30.0888 23.889 30.0888 18.362C30.0888 18.182 30.0838 18 30.0758 17.822C30.8947 17.2302 31.6014 16.4971 32.1628 15.657L32.1618 15.656Z" fill="white"/>
</g>
<defs>
<clipPath id="clip0_1470_545">
<rect width="24" height="24" fill="white" transform="translate(10 10)"/>
</clipPath>
</defs>
</svg>
