<svg width="66" height="66" viewBox="0 0 66 66" fill="none" xmlns="http://www.w3.org/2000/svg">
<circle cx="33" cy="33" r="33" fill="#F67741" fill-opacity="0.1"/>
<g clip-path="url(#clip0_2_598)">
<path d="M33 46.3333C25.636 46.3333 19.6667 40.364 19.6667 33C19.6667 25.636 25.636 19.6666 33 19.6666C40.364 19.6666 46.3333 25.636 46.3333 33C46.3333 40.364 40.364 46.3333 33 46.3333ZM39.4267 39.768C41.0362 38.2424 42.0499 36.1937 42.2862 33.9888C42.5226 31.7838 41.9662 29.5668 40.7166 27.7348C39.467 25.9028 37.606 24.5756 35.4669 23.9909C33.3278 23.4062 31.0504 23.6023 29.0427 24.544L30.3427 26.884C31.3572 26.443 32.4656 26.2615 33.5678 26.3557C34.67 26.4499 35.7315 26.8169 36.6565 27.4237C37.5815 28.0304 38.341 28.8578 38.8665 29.8313C39.392 30.8048 39.667 31.8937 39.6667 33H35.6667L39.4267 39.768ZM36.9573 41.456L35.6573 39.116C34.6428 39.5569 33.5344 39.7385 32.4322 39.6442C31.33 39.55 30.2685 39.183 29.3435 38.5762C28.4185 37.9695 27.659 37.1421 27.1335 36.1686C26.608 35.1951 26.333 34.1062 26.3333 33H30.3333L26.5733 26.232C24.9639 27.7575 23.9501 29.8062 23.7138 32.0112C23.4774 34.2161 24.0339 36.4332 25.2834 38.2651C26.533 40.0971 28.394 41.4244 30.5331 42.009C32.6722 42.5937 34.9496 42.3976 36.9573 41.456Z" fill="#F67741"/>
</g>
<defs>
<clipPath id="clip0_2_598">
<rect width="32" height="32" fill="white" transform="translate(17 17)"/>
</clipPath>
</defs>
</svg>
